<svg width="19" height="19" viewBox="0 0 19 19" fill="none" xmlns="http://www.w3.org/2000/svg">
<path d="M6.53125 16.625C7.18709 16.625 7.71875 16.0933 7.71875 15.4375C7.71875 14.7817 7.18709 14.25 6.53125 14.25C5.87541 14.25 5.34375 14.7817 5.34375 15.4375C5.34375 16.0933 5.87541 16.625 6.53125 16.625Z" fill="black"/>
<path d="M14.8438 16.625C15.4996 16.625 16.0312 16.0933 16.0312 15.4375C16.0312 14.7817 15.4996 14.25 14.8438 14.25C14.1879 14.25 13.6562 14.7817 13.6562 15.4375C13.6562 16.0933 14.1879 16.625 14.8438 16.625Z" fill="black"/>
<path d="M16.9516 4.48207C16.8681 4.38004 16.7631 4.29786 16.6439 4.2415C16.5248 4.18515 16.3946 4.15602 16.2628 4.15625H4.96857L4.74109 2.86559C4.71684 2.72811 4.64491 2.60357 4.53796 2.51385C4.431 2.42413 4.29585 2.37497 4.15625 2.375H1.78125C1.62378 2.375 1.47276 2.43756 1.36141 2.54891C1.25006 2.66026 1.1875 2.81128 1.1875 2.96875C1.1875 3.12622 1.25006 3.27724 1.36141 3.38859C1.47276 3.49994 1.62378 3.5625 1.78125 3.5625H3.65824L5.35266 13.1657C5.37691 13.3031 5.44884 13.4277 5.55579 13.5174C5.66275 13.6071 5.7979 13.6563 5.9375 13.6562H15.4375C15.595 13.6562 15.746 13.5937 15.8573 13.4823C15.9687 13.371 16.0312 13.22 16.0312 13.0625C16.0312 12.905 15.9687 12.754 15.8573 12.6427C15.746 12.5313 15.595 12.4688 15.4375 12.4688H6.43551L6.22621 11.2812H15.1941C15.4 11.281 15.5995 11.2096 15.7588 11.0791C15.9181 10.9487 16.0275 10.7672 16.0684 10.5654L17.1371 5.22166C17.1629 5.09234 17.1596 4.9589 17.1275 4.831C17.0954 4.7031 17.0353 4.58392 16.9516 4.48207Z" fill="black"/>
</svg>
