<svg width="20" height="20" viewBox="0 0 20 20" fill="none" xmlns="http://www.w3.org/2000/svg">
<path d="M8.97436 17.1795C11.1505 17.1795 13.2375 16.315 14.7763 14.7763C16.315 13.2375 17.1795 11.1505 17.1795 8.97436C17.1795 6.79822 16.315 4.71122 14.7763 3.17246C13.2375 1.6337 11.1505 0.769231 8.97436 0.769231C6.79822 0.769231 4.71122 1.6337 3.17246 3.17246C1.6337 4.71122 0.769231 6.79822 0.769231 8.97436C0.769231 11.1505 1.6337 13.2375 3.17246 14.7763C4.71122 16.315 6.79822 17.1795 8.97436 17.1795Z" fill="white" fill-opacity="0.16"/>
<path d="M19.2308 19.2308L15.1282 15.1282M17.1795 8.97436C17.1795 11.1505 16.315 13.2375 14.7763 14.7763C13.2375 16.315 11.1505 17.1795 8.97436 17.1795C6.79822 17.1795 4.71122 16.315 3.17246 14.7763C1.6337 13.2375 0.769231 11.1505 0.769231 8.97436C0.769231 6.79822 1.6337 4.71122 3.17246 3.17246C4.71122 1.6337 6.79822 0.769231 8.97436 0.769231C11.1505 0.769231 13.2375 1.6337 14.7763 3.17246C16.315 4.71122 17.1795 6.79822 17.1795 8.97436Z" stroke="white" stroke-width="1.5" stroke-miterlimit="10" stroke-linecap="round" stroke-linejoin="round"/>
</svg>
