<svg width="30" height="30" viewBox="0 0 30 30" fill="none" xmlns="http://www.w3.org/2000/svg">
<path fill-rule="evenodd" clip-rule="evenodd" d="M3.75 13.75C3.75 9.03625 3.75 6.67875 5.215 5.215C6.68 3.75125 9.03625 3.75 13.75 3.75H16.25C20.9637 3.75 23.3212 3.75 24.785 5.215C26.2487 6.68 26.25 9.03625 26.25 13.75V16.25C26.25 20.9637 26.25 23.3212 24.785 24.785C23.32 26.2487 20.9637 26.25 16.25 26.25H13.75C9.03625 26.25 6.67875 26.25 5.215 24.785C3.75125 23.32 3.75 20.9637 3.75 16.25V13.75ZM22.5 9.375C22.5 9.87228 22.3025 10.3492 21.9508 10.7008C21.5992 11.0525 21.1223 11.25 20.625 11.25C20.1277 11.25 19.6508 11.0525 19.2992 10.7008C18.9475 10.3492 18.75 9.87228 18.75 9.375C18.75 8.87772 18.9475 8.40081 19.2992 8.04917C19.6508 7.69754 20.1277 7.5 20.625 7.5C21.1223 7.5 21.5992 7.69754 21.9508 8.04917C22.3025 8.40081 22.5 8.87772 22.5 9.375ZM17.5 16.25C17.5 16.913 17.2366 17.5489 16.7678 18.0178C16.2989 18.4866 15.663 18.75 15 18.75C14.337 18.75 13.7011 18.4866 13.2322 18.0178C12.7634 17.5489 12.5 16.913 12.5 16.25C12.5 15.587 12.7634 14.9511 13.2322 14.4822C13.7011 14.0134 14.337 13.75 15 13.75C15.663 13.75 16.2989 14.0134 16.7678 14.4822C17.2366 14.9511 17.5 15.587 17.5 16.25ZM20 16.25C20 17.5761 19.4732 18.8479 18.5355 19.7855C17.5979 20.7232 16.3261 21.25 15 21.25C13.6739 21.25 12.4021 20.7232 11.4645 19.7855C10.5268 18.8479 10 17.5761 10 16.25C10 14.9239 10.5268 13.6521 11.4645 12.7145C12.4021 11.7768 13.6739 11.25 15 11.25C16.3261 11.25 17.5979 11.7768 18.5355 12.7145C19.4732 13.6521 20 14.9239 20 16.25Z" fill="#326400"/>
</svg>
