<svg width="24" height="24" viewBox="0 0 24 24" fill="none" xmlns="http://www.w3.org/2000/svg">
<path d="M17 12.5C17.1326 12.5 17.2598 12.4473 17.3536 12.3536C17.4473 12.2598 17.5 12.1326 17.5 12C17.5 11.8674 17.4473 11.7402 17.3536 11.6464C17.2598 11.5527 17.1326 11.5 17 11.5C16.8674 11.5 16.7402 11.5527 16.6464 11.6464C16.5527 11.7402 16.5 11.8674 16.5 12C16.5 12.1326 16.5527 12.2598 16.6464 12.3536C16.7402 12.4473 16.8674 12.5 17 12.5ZM12 12.5C12.1326 12.5 12.2598 12.4473 12.3536 12.3536C12.4473 12.2598 12.5 12.1326 12.5 12C12.5 11.8674 12.4473 11.7402 12.3536 11.6464C12.2598 11.5527 12.1326 11.5 12 11.5C11.8674 11.5 11.7402 11.5527 11.6464 11.6464C11.5527 11.7402 11.5 11.8674 11.5 12C11.5 12.1326 11.5527 12.2598 11.6464 12.3536C11.7402 12.4473 11.8674 12.5 12 12.5ZM7 12.5C7.13261 12.5 7.25979 12.4473 7.35355 12.3536C7.44732 12.2598 7.5 12.1326 7.5 12C7.5 11.8674 7.44732 11.7402 7.35355 11.6464C7.25979 11.5527 7.13261 11.5 7 11.5C6.86739 11.5 6.74021 11.5527 6.64645 11.6464C6.55268 11.7402 6.5 11.8674 6.5 12C6.5 12.1326 6.55268 12.2598 6.64645 12.3536C6.74021 12.4473 6.86739 12.5 7 12.5Z" fill="black" stroke="black" stroke-width="1.5" stroke-linecap="round" stroke-linejoin="round"/>
<path d="M12 22C17.523 22 22 17.523 22 12C22 6.477 17.523 2 12 2C6.477 2 2 6.477 2 12C2 13.821 2.487 15.53 3.338 17L2.5 21.5L7 20.662C8.51963 21.5408 10.2445 22.0024 12 22Z" stroke="black" stroke-width="1.5" stroke-linecap="round" stroke-linejoin="round"/>
</svg>
