<svg width="37" height="37" viewBox="0 0 37 37" fill="none" xmlns="http://www.w3.org/2000/svg">
<path d="M33.9648 16.7654L30.6718 11.3033C30.4308 10.9066 30.0921 10.5785 29.688 10.3501C29.2839 10.1218 28.8281 10.0009 28.3639 9.99902H25.7786V9.61514C25.7786 9.06077 25.6691 8.51186 25.4564 7.99992C25.2437 7.48799 24.932 7.02312 24.5391 6.63202C23.7448 5.84061 22.6694 5.39604 21.5482 5.3956H6.15777C5.32013 5.39006 4.49988 5.63459 3.80201 6.09791C3.10415 6.56124 2.56041 7.22226 2.2404 7.99639C2.02866 8.5096 1.92173 9.05998 1.9259 9.61514V23.4254C1.92677 24.074 2.16261 24.7003 2.58975 25.1884C3.0169 25.6765 3.60643 25.9933 4.24919 26.0801C4.242 26.2189 4.242 26.3571 4.24919 26.4949C4.24371 27.1487 4.37033 27.797 4.62147 28.4007C4.87261 29.0044 5.24309 29.5512 5.71069 30.0083C6.16954 30.4859 6.71878 30.8674 7.32646 31.1308C7.93414 31.3941 8.58812 31.534 9.25036 31.5423C10.5721 31.5303 11.8366 31.0012 12.7731 30.0684C13.7087 29.1371 14.2403 27.8751 14.2531 26.555C14.261 26.4277 14.261 26.3 14.2531 26.1726H22.7461C22.7382 26.3 22.7382 26.4277 22.7461 26.555C22.7404 27.2091 22.8669 27.8576 23.1181 28.4616C23.3692 29.0657 23.7398 29.6127 24.2076 30.07C24.6668 30.5479 25.2166 30.9297 25.8248 31.1931C26.433 31.4564 27.0876 31.5961 27.7504 31.6039C29.0721 31.5919 30.3366 31.0629 31.2731 30.1301C32.2081 29.1985 32.7392 27.9365 32.7515 26.6166C32.7595 26.4888 32.7595 26.3606 32.7515 26.2328H33.917C34.2211 26.2284 34.5116 26.106 34.7271 25.8914C34.9426 25.6768 35.0662 25.3868 35.0717 25.0827V20.6489C35.0717 19.2768 34.6879 17.9324 33.9648 16.7654ZM11.9282 26.4933C11.9287 26.8457 11.8581 27.1946 11.7206 27.5191C11.5831 27.8436 11.3816 28.137 11.1281 28.3818C10.6152 28.8692 9.93474 29.1409 9.22723 29.1409C8.51973 29.1409 7.83925 28.8692 7.32636 28.3818C7.07636 28.1324 6.8784 27.8358 6.74396 27.5092C6.60952 27.1826 6.54127 26.8326 6.54319 26.4794C6.53595 26.1148 6.60966 25.7531 6.75902 25.4203C6.96252 24.9378 7.31248 24.5308 7.75802 24.2533C8.21372 23.9521 8.7505 23.7972 9.29661 23.8093C9.81769 23.8093 10.3264 23.9634 10.7581 24.2533C11.2006 24.5354 11.549 24.9409 11.7602 25.4203C11.9113 25.7518 11.9914 26.1141 11.9899 26.4794L11.9282 26.4933ZM16.9294 18.822H9.23648C8.82921 18.8216 8.43864 18.66 8.15007 18.3726C7.86151 18.0852 7.69839 17.6953 7.69636 17.288C7.69595 17.086 7.73549 16.8859 7.8127 16.6992C7.88992 16.5125 8.00328 16.343 8.14628 16.2003C8.28927 16.0575 8.45907 15.9445 8.6459 15.8677C8.83274 15.7908 9.03292 15.7517 9.23494 15.7525H16.9294C17.3367 15.7533 17.7271 15.9153 18.0154 16.203C18.3036 16.4907 18.4664 16.8807 18.468 17.288C18.4682 17.4899 18.4285 17.6898 18.3512 17.8763C18.2739 18.0629 18.1605 18.2322 18.0175 18.3748C17.8745 18.5173 17.7048 18.6302 17.5181 18.707C17.3313 18.7837 17.1313 18.8228 16.9294 18.822ZM16.9294 13.5433H9.23648C8.82921 13.5429 8.43864 13.3814 8.15007 13.0939C7.86151 12.8065 7.69839 12.4166 7.69636 12.0093C7.69615 11.8075 7.73584 11.6075 7.81315 11.421C7.89045 11.2345 8.00385 11.0651 8.14682 10.9226C8.28979 10.78 8.45952 10.6672 8.64626 10.5904C8.83299 10.5137 9.03305 10.4746 9.23494 10.4754H16.9294C17.3364 10.4762 17.7266 10.6379 18.0148 10.9253C18.303 11.2127 18.4659 11.6023 18.468 12.0093C18.4682 12.2112 18.4285 12.4112 18.3512 12.5977C18.2739 12.7842 18.1605 12.9536 18.0175 13.0961C17.8745 13.2387 17.7048 13.3515 17.5181 13.4283C17.3313 13.505 17.1313 13.5441 16.9294 13.5433ZM30.3943 26.4933C30.3946 26.8458 30.3237 27.1948 30.186 27.5193C30.0482 27.8438 29.8464 28.1372 29.5926 28.3818C29.0798 28.8687 28.3997 29.1402 27.6925 29.1402C26.9854 29.1402 26.3052 28.8687 25.7924 28.3818C25.5422 28.1325 25.3439 27.836 25.2092 27.5094C25.0745 27.1828 25.006 26.8327 25.0077 26.4794C25.0012 25.9204 25.1801 25.375 25.5165 24.9285C25.8957 24.4244 26.4399 24.0652 27.0551 23.9156H27.4405C27.5109 23.8989 27.5843 23.8989 27.6548 23.9156H27.9631C28.4302 23.9696 28.8758 24.1438 29.255 24.4228C29.6358 24.7019 29.9334 25.0781 30.1168 25.5128C30.2694 25.8443 30.3481 26.2066 30.3481 26.5704L30.3943 26.4933Z" fill="white"/>
<path d="M27.6884 23.794C27.6174 23.777 27.5435 23.777 27.4725 23.794H27.6884Z" fill="white"/>
</svg>
