<svg width="37" height="37" viewBox="0 0 37 37" fill="none" xmlns="http://www.w3.org/2000/svg">
<path d="M19.3217 1.0616C18.0867 1.56312 17.1121 2.31092 16.5214 3.20015L15.451 1.20613C14.7994 4.772 14.5462 8.0775 17.7635 9.12377C16.9878 11.7933 16.5214 14.4642 16.2685 17.1317L14.7825 14.3608C14.5767 13.2975 14.0875 12.1424 13.5292 10.9643L12.2735 16.3209C11.7522 14.6973 11.0814 13.0923 10.2161 11.5174C11.9837 8.39432 11.3821 6.41778 7.96918 5.7882C7.93196 6.00789 7.92871 6.46345 7.92871 6.46345L6.49236 5.83113L6.32297 7.26502L5.64772 6.92863C5.2551 9.98214 5.63905 12.3446 9.0171 12.1385C9.28173 12.6187 9.53032 13.1074 9.76245 13.6041L2.11133 11.2961C4.37057 14.5659 6.74883 17.2768 10.2434 14.6994C11.0372 16.6257 11.5792 18.5977 11.9597 20.605L7.27832 17.7008C8.20852 20.3072 9.31642 22.5632 12.1155 21.4902C12.2049 22.0282 12.2821 22.5688 12.3525 23.1116H13.7166C13.5174 21.5254 13.2445 19.945 12.8562 18.3782C13.4494 18.0823 13.8932 17.7385 14.2112 17.3529C14.4781 18.1621 15.0502 18.7725 16.1217 19.058C16.0425 20.4101 16.0129 21.7617 16.0178 23.1115H17.3683C17.3673 22.8174 17.3681 22.5247 17.3705 22.2308C20.3976 21.7385 20.2235 19.1611 19.7124 16.3637L17.4023 20.6725C17.4576 18.9598 17.5824 17.2525 17.8065 15.5485C21.6015 15.9129 22.2251 12.7458 22.5128 9.20499L18.046 13.9632C18.2968 12.4772 18.6285 10.9938 19.0578 9.51422C21.7709 9.84635 24.6138 6.92964 24.4979 4.45562L23.5991 5.01351C23.523 4.14922 23.1168 3.17002 22.3615 2.07303C21.817 2.45994 21.3496 2.98162 20.9276 3.55014L20.6316 2.24256L19.7869 3.29728C19.7638 2.54066 19.6301 1.79639 19.3217 1.0616ZM32.49 8.23396C32.1291 8.23454 31.6965 8.29611 31.1711 8.44396C30.2074 8.71525 29.1824 9.32922 29.5541 11.163C27.7845 12.1116 26.2727 13.412 25.0556 15.0042H25.0419C25.044 15.0075 25.0467 15.01 25.0487 15.0133C24.9909 15.0891 24.9336 15.1643 24.8771 15.2413L26.5437 9.72429C23.224 12.0182 20.4778 14.4335 23.2601 18.0168C22.5599 19.5557 22.0652 21.2644 21.7922 23.1115H24.5406C26.3133 22.5785 26.6797 20.4784 26.8666 18.1794L23.3867 21.8853C23.8756 19.6776 24.7181 17.7492 25.8731 16.1423C28.5271 19.188 31.4505 17.219 34.4028 14.7108L26.8442 14.9478C27.7905 13.9156 28.893 13.0546 30.1366 12.3824C30.9596 13.4476 32.1891 13.4065 33.0703 12.9469C34.9013 11.9918 34.3307 10.935 35.8366 9.62948C34.3268 10.0099 34.4381 8.23056 32.49 8.23381V8.23396ZM11.0517 24.4621L12.933 35.6339H23.3098L25.2182 24.4621H11.0517Z" fill="white"/>
</svg>
