<svg width="37" height="37" viewBox="0 0 37 37" fill="none" xmlns="http://www.w3.org/2000/svg">
<path d="M15.6547 22.7751L15.6408 22.7428C15.4324 22.6858 15.2257 22.6225 15.021 22.5531L15.0056 22.547C12.8759 21.8183 11.0273 20.4419 9.71867 18.6105C8.41 16.7791 7.70676 14.5843 7.70737 12.3334C7.70669 9.57093 8.76542 6.91335 10.6655 4.90809C12.5656 2.90282 15.1623 1.70258 17.9209 1.55457C20.6794 1.40657 23.3897 2.32208 25.4934 4.11252C27.5971 5.90297 28.9341 8.432 29.229 11.1787C29.2969 11.8139 28.7727 12.3334 28.1345 12.3334C27.4962 12.3334 26.9859 11.8123 26.9011 11.1803C26.6961 9.68834 26.0974 8.27793 25.1668 7.09399C24.2361 5.91004 23.007 4.99527 21.6057 4.44368C20.2044 3.89209 18.6815 3.72358 17.1935 3.95547C15.7055 4.18736 14.3061 4.81129 13.1391 5.76313C11.9721 6.71497 11.0797 7.96038 10.5534 9.37138C10.0271 10.7824 9.88607 12.3081 10.1447 13.7916C10.4034 15.2752 11.0524 16.6631 12.0251 17.8128C12.9978 18.9624 14.2591 19.8324 15.6793 20.3331C15.9654 19.6864 16.4651 19.1578 17.0947 18.8357C17.7242 18.5136 18.4453 18.4177 19.1372 18.564C19.829 18.7104 20.4495 19.0901 20.8947 19.6395C21.3399 20.189 21.5827 20.8747 21.5824 21.5819C21.5831 22.2945 21.3369 22.9855 20.8857 23.5371C20.4345 24.0887 19.8062 24.467 19.1075 24.6077C18.4089 24.7483 17.6831 24.6426 17.0536 24.3085C16.4241 23.9744 15.9298 23.4326 15.6547 22.7751ZM14.0745 24.6714C12.2567 24.0185 10.6058 22.972 9.23979 21.6066C8.39517 21.7048 7.61607 22.1099 7.05048 22.7448C6.48489 23.3798 6.17223 24.2003 6.17188 25.0506V26.469C6.17188 27.3508 6.44629 28.2111 6.95812 28.9295C9.33537 32.2656 13.2265 33.9168 18.499 33.9168C23.7715 33.9168 27.6643 32.2641 30.0461 28.9295C30.5603 28.2103 30.8368 27.3484 30.837 26.4643V25.0491C30.837 24.1297 30.472 23.2478 29.8221 22.5974C29.1723 21.947 28.2908 21.5812 27.3713 21.5803H23.8949C23.8951 22.7287 23.529 23.8471 22.8498 24.773C22.1706 25.6989 21.2137 26.384 20.1183 26.7286C19.0229 27.0732 17.8462 27.0594 16.7592 26.6891C15.6722 26.3188 14.7317 25.613 14.0745 24.6714ZM24.6657 12.3334C24.6657 11.4322 24.4682 10.5419 24.087 9.7253C23.7059 8.90866 23.1504 8.18548 22.4596 7.60668C21.8184 7.07028 21.0748 6.66987 20.274 6.42977C19.4732 6.18967 18.632 6.1149 17.8014 6.21C16.9709 6.3051 16.1683 6.56808 15.4425 6.98297C14.7167 7.39786 14.0829 7.95599 13.5795 8.62344C13.0761 9.29089 12.7137 10.0537 12.5143 10.8656C12.3149 11.6774 12.2826 12.5214 12.4194 13.3461C12.5563 14.1708 12.8594 14.9591 13.3103 15.663C13.7613 16.367 14.3506 16.9719 15.0426 17.441C16.0125 16.6314 17.2357 16.1879 18.499 16.1876C19.8141 16.1876 21.0197 16.6578 21.957 17.441C22.7915 16.8758 23.4748 16.1147 23.947 15.2243C24.4192 14.3339 24.666 13.3413 24.6657 12.3334Z" fill="white"/>
</svg>
