<svg width="14" height="14" viewBox="0 0 14 14" fill="none" xmlns="http://www.w3.org/2000/svg">
<path d="M4.8125 12.25C5.29575 12.25 5.6875 11.8582 5.6875 11.375C5.6875 10.8918 5.29575 10.5 4.8125 10.5C4.32925 10.5 3.9375 10.8918 3.9375 11.375C3.9375 11.8582 4.32925 12.25 4.8125 12.25Z" fill="white"/>
<path d="M10.9375 12.25C11.4207 12.25 11.8125 11.8582 11.8125 11.375C11.8125 10.8918 11.4207 10.5 10.9375 10.5C10.4543 10.5 10.0625 10.8918 10.0625 11.375C10.0625 11.8582 10.4543 12.25 10.9375 12.25Z" fill="white"/>
<path d="M12.4906 3.30258C12.4292 3.2274 12.3517 3.16684 12.2639 3.12532C12.1762 3.08379 12.0802 3.06233 11.9831 3.0625H3.66105L3.49344 2.11148C3.47556 2.01018 3.42257 1.91842 3.34376 1.85231C3.26495 1.7862 3.16537 1.74998 3.0625 1.75H1.3125C1.19647 1.75 1.08519 1.79609 1.00314 1.87814C0.921094 1.96019 0.875 2.07147 0.875 2.1875C0.875 2.30353 0.921094 2.41481 1.00314 2.49686C1.08519 2.57891 1.19647 2.625 1.3125 2.625H2.69555L3.94406 9.70102C3.96194 9.80232 4.01493 9.89408 4.09374 9.96019C4.17255 10.0263 4.27213 10.0625 4.375 10.0625H11.375C11.491 10.0625 11.6023 10.0164 11.6844 9.93436C11.7664 9.85231 11.8125 9.74103 11.8125 9.625C11.8125 9.50897 11.7664 9.39769 11.6844 9.31564C11.6023 9.23359 11.491 9.1875 11.375 9.1875H4.74195L4.58773 8.3125H11.1956C11.3473 8.31231 11.4943 8.2597 11.6117 8.16358C11.7291 8.06747 11.8097 7.93374 11.8398 7.78504L12.6273 3.84754C12.6463 3.75225 12.6439 3.65393 12.6203 3.55969C12.5966 3.46544 12.5523 3.37763 12.4906 3.30258Z" fill="white"/>
</svg>
