<svg width="37" height="37" viewBox="0 0 37 37" fill="none" xmlns="http://www.w3.org/2000/svg">
<path d="M14.7448 13.4585L15.5387 16.3306C16.2864 19.0363 16.6595 20.3899 17.7587 21.005C18.8579 21.6216 20.2532 21.2578 23.0436 20.5332L26.0036 19.7624C28.794 19.0378 30.1892 18.6755 30.8244 17.6102C31.4595 16.5434 31.0864 15.1898 30.3372 12.4842L29.5448 9.61361C28.7971 6.90644 28.4224 5.55286 27.3248 4.93773C26.224 4.32106 24.8288 4.6849 22.0384 5.41102L19.0784 6.17877C16.288 6.90336 14.8928 7.26719 14.2592 8.33402C13.624 9.39931 13.9971 10.7529 14.7448 13.4585Z" fill="white"/>
<path d="M3.51066 8.08936C3.55128 7.94294 3.62036 7.80596 3.71395 7.68626C3.80755 7.56655 3.92382 7.46647 4.05611 7.39173C4.18841 7.31699 4.33414 7.26906 4.48498 7.25068C4.63581 7.2323 4.78879 7.24383 4.93516 7.28461L7.56062 8.01228C8.25623 8.20166 8.891 8.56783 9.4032 9.07517C9.91541 9.58251 10.2876 10.2138 10.4836 10.9075L13.7997 22.9109L14.0433 23.7542C15.0265 24.1166 15.8551 24.8063 16.3897 25.7075L16.8677 25.5595L30.5422 22.006C30.6892 21.9677 30.8423 21.9588 30.9927 21.9797C31.1432 22.0006 31.288 22.0509 31.419 22.1278C31.55 22.2046 31.6646 22.3066 31.7562 22.4277C31.8478 22.5489 31.9146 22.6869 31.9529 22.8339C31.9911 22.9808 32.0001 23.1339 31.9792 23.2844C31.9583 23.4348 31.908 23.5796 31.8311 23.7106C31.7542 23.8416 31.6523 23.9562 31.5311 24.0478C31.41 24.1394 31.272 24.2062 31.125 24.2445L17.5013 27.7842L16.9925 27.9414C16.9833 29.8993 15.6312 31.6907 13.5855 32.2211C11.1342 32.8593 8.61358 31.4472 7.95683 29.0699C7.30008 26.6927 8.75541 24.246 11.2067 23.6093C11.329 23.5785 11.4508 23.5518 11.572 23.5292L8.25437 11.5227C8.16466 11.2144 7.9969 10.9345 7.76733 10.7101C7.53777 10.4856 7.25416 10.3243 6.94396 10.2415L4.31696 9.51232C4.17057 9.47185 4.03358 9.40295 3.91383 9.30953C3.79407 9.21611 3.6939 9.10002 3.61902 8.96788C3.54415 8.83573 3.49604 8.69014 3.47745 8.5394C3.45885 8.38866 3.47014 8.23573 3.51066 8.08936Z" fill="white"/>
</svg>
