<svg width="15" height="14" viewBox="0 0 15 14" fill="none" xmlns="http://www.w3.org/2000/svg">
<path d="M6.54707 0.441269C6.62531 0.307004 6.73739 0.195601 6.87212 0.118174C7.00686 0.0407461 7.15954 0 7.31494 0C7.47034 0 7.62302 0.0407461 7.75776 0.118174C7.89249 0.195601 8.00457 0.307004 8.08281 0.441269L10.07 3.85262L13.9293 4.68875C14.0811 4.72174 14.2216 4.79394 14.3368 4.89816C14.452 5.00238 14.5379 5.13498 14.5859 5.28273C14.6339 5.43049 14.6423 5.58824 14.6103 5.74026C14.5783 5.89228 14.507 6.03325 14.4036 6.14914L11.7729 9.09337L12.171 13.0216C12.1867 13.1763 12.1616 13.3324 12.0981 13.4743C12.0346 13.6162 11.935 13.739 11.8092 13.8304C11.6834 13.9218 11.5359 13.9786 11.3813 13.9951C11.2267 14.0116 11.0705 13.9873 10.9282 13.9246L7.31494 12.3319L3.70166 13.9246C3.55941 13.9873 3.40318 14.0116 3.24859 13.9951C3.09399 13.9786 2.94643 13.9218 2.82065 13.8304C2.69487 13.739 2.59526 13.6162 2.53177 13.4743C2.46828 13.3324 2.44314 13.1763 2.45884 13.0216L2.857 9.09337L0.226321 6.14985C0.122677 6.03397 0.0512419 5.89294 0.0191464 5.74083C-0.0129491 5.58871 -0.00458198 5.43084 0.0434125 5.28297C0.091407 5.1351 0.17735 5.00241 0.292661 4.89814C0.407972 4.79387 0.548616 4.72167 0.700554 4.68875L4.55984 3.85262L6.54707 0.441269Z" fill="#FFD900"/>
</svg>
